%TF.GenerationSoftware,KiCad,Pcbnew,10.0.5*%
%TF.CreationDate,2026-09-14T23:24:27+05:30*%
%TF.ProjectId,hackpad-san,6861636b-7061-4642-9d73-616e2e6b6963,rev?*%
%TF.SameCoordinates,Original*%
%TF.FileFunction,Copper,L2,Bot*%
%TF.FilePolarity,Positive*%
%FSLAX46Y46*%
G04 Gerber Fmt 4.6, Leading zero omitted, Abs format (unit mm)*
G04 Created by KiCad (PCBNEW 10.0.5) date 2026-09-14 23:24:27*
%MOMM*%
%LPD*%
G01*
G04 APERTURE LIST*
G04 Aperture macros list*
%AMRoundRect*
0 Rectangle with rounded corners*
0 $1 Rounding radius*
0 $2 $3 $4 $5 $6 $7 $8 $9 X,Y pos of 4 corners*
0 Add a 4 corners polygon primitive as box body*
4,1,4,$2,$3,$4,$5,$6,$7,$8,$9,$2,$3,0*
0 Add four circle primitives for the rounded corners*
1,1,$1+$1,$2,$3*
1,1,$1+$1,$4,$5*
1,1,$1+$1,$6,$7*
1,1,$1+$1,$8,$9*
0 Add four rect primitives between the rounded corners*
20,1,$1+$1,$2,$3,$4,$5,0*
20,1,$1+$1,$4,$5,$6,$7,0*
20,1,$1+$1,$6,$7,$8,$9,0*
20,1,$1+$1,$8,$9,$2,$3,0*%
G04 Aperture macros list end*
%TA.AperFunction,ComponentPad*%
%ADD10C,1.600000*%
%TD*%
%TA.AperFunction,ComponentPad*%
%ADD11RoundRect,0.250000X-0.550000X-0.550000X0.550000X-0.550000X0.550000X0.550000X-0.550000X0.550000X0*%
%TD*%
%TA.AperFunction,ComponentPad*%
%ADD12C,2.000000*%
%TD*%
%TA.AperFunction,ComponentPad*%
%ADD13R,3.200000X2.000000*%
%TD*%
%TA.AperFunction,ComponentPad*%
%ADD14R,2.000000X2.000000*%
%TD*%
%TA.AperFunction,ComponentPad*%
%ADD15C,2.200000*%
%TD*%
%TA.AperFunction,ViaPad*%
%ADD16C,0.600000*%
%TD*%
%TA.AperFunction,Conductor*%
%ADD17C,0.200000*%
%TD*%
G04 APERTURE END LIST*
D10*
%TO.P,D1,2,A_2*%
%TO.N,Net-(D1-A)*%
X155080000Y-82000000D03*
D11*
%TO.P,D1,1,K_1*%
%TO.N,/col1*%
X144920000Y-82000000D03*
%TD*%
%TO.P,D6,1,K_1*%
%TO.N,/col2*%
X163920000Y-122000000D03*
D10*
%TO.P,D6,2,A_2*%
%TO.N,Net-(D6-A)*%
X174080000Y-122000000D03*
%TD*%
D11*
%TO.P,D4,1,K_1*%
%TO.N,/col2*%
X164420000Y-82000000D03*
D10*
%TO.P,D4,2,A_2*%
%TO.N,Net-(D4-A)*%
X174580000Y-82000000D03*
%TD*%
D11*
%TO.P,D5,1,K_1*%
%TO.N,/col2*%
X163420000Y-101500000D03*
D10*
%TO.P,D5,2,A_2*%
%TO.N,Net-(D5-A)*%
X173580000Y-101500000D03*
%TD*%
D12*
%TO.P,SW11,S2,S2_S2*%
%TO.N,GND*%
X216250000Y-67600000D03*
%TO.P,SW11,S1,S1_S1*%
%TO.N,/RE_S1*%
X216250000Y-72600000D03*
D13*
%TO.P,SW11,MP*%
%TO.N,N/C*%
X209250000Y-75700000D03*
X209250000Y-64500000D03*
D12*
%TO.P,SW11,C,C_C*%
%TO.N,GND*%
X201750000Y-70100000D03*
%TO.P,SW11,B,B_B*%
%TO.N,/RE_B*%
X201750000Y-72600000D03*
D14*
%TO.P,SW11,A,A_A*%
%TO.N,/RE_A*%
X201750000Y-67600000D03*
%TD*%
D10*
%TO.P,D8,2,A_2*%
%TO.N,Net-(D8-A)*%
X193080000Y-101500000D03*
D11*
%TO.P,D8,1,K_1*%
%TO.N,/col3*%
X182920000Y-101500000D03*
%TD*%
D10*
%TO.P,D9,2,A_2*%
%TO.N,Net-(D9-A)*%
X193080000Y-121500000D03*
D11*
%TO.P,D9,1,K_1*%
%TO.N,/col3*%
X182920000Y-121500000D03*
%TD*%
D10*
%TO.P,D7,2,A_2*%
%TO.N,Net-(D7-A)*%
X193580000Y-82000000D03*
D11*
%TO.P,D7,1,K_1*%
%TO.N,/col3*%
X183420000Y-82000000D03*
%TD*%
D10*
%TO.P,D3,2,A_2*%
%TO.N,Net-(D3-A)*%
X153580000Y-122000000D03*
D11*
%TO.P,D3,1,K_1*%
%TO.N,/col1*%
X143420000Y-122000000D03*
%TD*%
D10*
%TO.P,D2,2,A_2*%
%TO.N,Net-(D2-A)*%
X153580000Y-101500000D03*
D11*
%TO.P,D2,1,K_1*%
%TO.N,/col1*%
X143420000Y-101500000D03*
%TD*%
D15*
%TO.P,SW6,2,2_2*%
%TO.N,Net-(D6-A)*%
X165000000Y-109000000D03*
%TO.P,SW6,1,1_1*%
%TO.N,/row3*%
X171350000Y-106460000D03*
%TD*%
%TO.P,SW9,2,2_2*%
%TO.N,Net-(D9-A)*%
X184500000Y-109000000D03*
%TO.P,SW9,1,1_1*%
%TO.N,/row3*%
X190850000Y-106460000D03*
%TD*%
%TO.P,SW8,2,2_2*%
%TO.N,Net-(D8-A)*%
X184500000Y-89460000D03*
%TO.P,SW8,1,1_1*%
%TO.N,/row2*%
X190850000Y-86920000D03*
%TD*%
%TO.P,SW5,2,2_2*%
%TO.N,Net-(D5-A)*%
X165000000Y-89500000D03*
%TO.P,SW5,1,1_1*%
%TO.N,/row2*%
X171350000Y-86960000D03*
%TD*%
%TO.P,SW2,2,2_2*%
%TO.N,Net-(D2-A)*%
X145650000Y-89540000D03*
%TO.P,SW2,1,1_1*%
%TO.N,/row2*%
X152000000Y-87000000D03*
%TD*%
%TO.P,SW1,2,2_2*%
%TO.N,Net-(D1-A)*%
X145610000Y-69960000D03*
%TO.P,SW1,1,1_1*%
%TO.N,/row1*%
X151960000Y-67420000D03*
%TD*%
%TO.P,SW4,2,2_2*%
%TO.N,Net-(D4-A)*%
X165190000Y-69960000D03*
%TO.P,SW4,1,1_1*%
%TO.N,/row1*%
X171540000Y-67420000D03*
%TD*%
%TO.P,SW7,2,2_2*%
%TO.N,Net-(D7-A)*%
X184610000Y-69960000D03*
%TO.P,SW7,1,1_1*%
%TO.N,/row1*%
X190960000Y-67420000D03*
%TD*%
%TO.P,SW3,2,2_2*%
%TO.N,Net-(D3-A)*%
X145650000Y-109040000D03*
%TO.P,SW3,1,1_1*%
%TO.N,/row3*%
X152000000Y-106500000D03*
%TD*%
D16*
%TO.N,/col1*%
X133000000Y-101000000D03*
X133500000Y-98000000D03*
%TO.N,/row3*%
X145000000Y-103500000D03*
X159500000Y-109500000D03*
%TO.N,/col1*%
X113000000Y-88000000D03*
X138500000Y-76000000D03*
%TO.N,/col2*%
X165000000Y-125500000D03*
X177000000Y-102900000D03*
%TO.N,Net-(D3-A)*%
X148000000Y-114500000D03*
X149000000Y-116500000D03*
%TO.N,Net-(D6-A)*%
X171000000Y-115000000D03*
X172500000Y-116500000D03*
%TD*%
%TO.N,/col1*%
D17*
X133000000Y-98500000D02*
X133500000Y-98000000D01*
X133000000Y-101000000D02*
X133000000Y-98500000D01*
X138500000Y-76000000D02*
X138500000Y-83000000D01*
X138500000Y-83000000D02*
X133500000Y-88000000D01*
X133500000Y-88000000D02*
X113000000Y-88000000D01*
%TO.N,/row3*%
X153000000Y-103000000D02*
X145500000Y-103000000D01*
X159500000Y-109500000D02*
X153000000Y-103000000D01*
X145500000Y-103000000D02*
X145000000Y-103500000D01*
%TO.N,/col2*%
X177000000Y-113500000D02*
X165000000Y-125500000D01*
X177000000Y-102900000D02*
X177000000Y-113500000D01*
%TO.N,Net-(D3-A)*%
X148000000Y-115500000D02*
X148000000Y-114500000D01*
X149000000Y-116500000D02*
X148000000Y-115500000D01*
%TO.N,Net-(D6-A)*%
X172500000Y-116500000D02*
X171000000Y-115000000D01*
%TD*%
M02*
