%TF.GenerationSoftware,KiCad,Pcbnew,10.0.5*%
%TF.CreationDate,2026-09-14T23:24:27+05:30*%
%TF.ProjectId,hackpad-san,6861636b-7061-4642-9d73-616e2e6b6963,rev?*%
%TF.SameCoordinates,Original*%
%TF.FileFunction,Legend,Bot*%
%TF.FilePolarity,Positive*%
%FSLAX46Y46*%
G04 Gerber Fmt 4.6, Leading zero omitted, Abs format (unit mm)*
G04 Created by KiCad (PCBNEW 10.0.5) date 2026-09-14 23:24:27*
%MOMM*%
%LPD*%
G01*
G04 APERTURE LIST*
%ADD10C,0.150000*%
%ADD11C,0.120000*%
G04 APERTURE END LIST*
D10*
X150738094Y-84574819D02*
X150738094Y-83574819D01*
X150738094Y-83574819D02*
X150499999Y-83574819D01*
X150499999Y-83574819D02*
X150357142Y-83622438D01*
X150357142Y-83622438D02*
X150261904Y-83717676D01*
X150261904Y-83717676D02*
X150214285Y-83812914D01*
X150214285Y-83812914D02*
X150166666Y-84003390D01*
X150166666Y-84003390D02*
X150166666Y-84146247D01*
X150166666Y-84146247D02*
X150214285Y-84336723D01*
X150214285Y-84336723D02*
X150261904Y-84431961D01*
X150261904Y-84431961D02*
X150357142Y-84527200D01*
X150357142Y-84527200D02*
X150499999Y-84574819D01*
X150499999Y-84574819D02*
X150738094Y-84574819D01*
X149214285Y-84574819D02*
X149785713Y-84574819D01*
X149499999Y-84574819D02*
X149499999Y-83574819D01*
X149499999Y-83574819D02*
X149595237Y-83717676D01*
X149595237Y-83717676D02*
X149690475Y-83812914D01*
X149690475Y-83812914D02*
X149785713Y-83860533D01*
X145181904Y-84254819D02*
X145181904Y-83254819D01*
X144610476Y-84254819D02*
X145039047Y-83683390D01*
X144610476Y-83254819D02*
X145181904Y-83826247D01*
X169738094Y-124574819D02*
X169738094Y-123574819D01*
X169738094Y-123574819D02*
X169499999Y-123574819D01*
X169499999Y-123574819D02*
X169357142Y-123622438D01*
X169357142Y-123622438D02*
X169261904Y-123717676D01*
X169261904Y-123717676D02*
X169214285Y-123812914D01*
X169214285Y-123812914D02*
X169166666Y-124003390D01*
X169166666Y-124003390D02*
X169166666Y-124146247D01*
X169166666Y-124146247D02*
X169214285Y-124336723D01*
X169214285Y-124336723D02*
X169261904Y-124431961D01*
X169261904Y-124431961D02*
X169357142Y-124527200D01*
X169357142Y-124527200D02*
X169499999Y-124574819D01*
X169499999Y-124574819D02*
X169738094Y-124574819D01*
X168309523Y-123574819D02*
X168499999Y-123574819D01*
X168499999Y-123574819D02*
X168595237Y-123622438D01*
X168595237Y-123622438D02*
X168642856Y-123670057D01*
X168642856Y-123670057D02*
X168738094Y-123812914D01*
X168738094Y-123812914D02*
X168785713Y-124003390D01*
X168785713Y-124003390D02*
X168785713Y-124384342D01*
X168785713Y-124384342D02*
X168738094Y-124479580D01*
X168738094Y-124479580D02*
X168690475Y-124527200D01*
X168690475Y-124527200D02*
X168595237Y-124574819D01*
X168595237Y-124574819D02*
X168404761Y-124574819D01*
X168404761Y-124574819D02*
X168309523Y-124527200D01*
X168309523Y-124527200D02*
X168261904Y-124479580D01*
X168261904Y-124479580D02*
X168214285Y-124384342D01*
X168214285Y-124384342D02*
X168214285Y-124146247D01*
X168214285Y-124146247D02*
X168261904Y-124051009D01*
X168261904Y-124051009D02*
X168309523Y-124003390D01*
X168309523Y-124003390D02*
X168404761Y-123955771D01*
X168404761Y-123955771D02*
X168595237Y-123955771D01*
X168595237Y-123955771D02*
X168690475Y-124003390D01*
X168690475Y-124003390D02*
X168738094Y-124051009D01*
X168738094Y-124051009D02*
X168785713Y-124146247D01*
X164181904Y-124254819D02*
X164181904Y-123254819D01*
X163610476Y-124254819D02*
X164039047Y-123683390D01*
X163610476Y-123254819D02*
X164181904Y-123826247D01*
X170238094Y-84574819D02*
X170238094Y-83574819D01*
X170238094Y-83574819D02*
X169999999Y-83574819D01*
X169999999Y-83574819D02*
X169857142Y-83622438D01*
X169857142Y-83622438D02*
X169761904Y-83717676D01*
X169761904Y-83717676D02*
X169714285Y-83812914D01*
X169714285Y-83812914D02*
X169666666Y-84003390D01*
X169666666Y-84003390D02*
X169666666Y-84146247D01*
X169666666Y-84146247D02*
X169714285Y-84336723D01*
X169714285Y-84336723D02*
X169761904Y-84431961D01*
X169761904Y-84431961D02*
X169857142Y-84527200D01*
X169857142Y-84527200D02*
X169999999Y-84574819D01*
X169999999Y-84574819D02*
X170238094Y-84574819D01*
X168809523Y-83908152D02*
X168809523Y-84574819D01*
X169047618Y-83527200D02*
X169285713Y-84241485D01*
X169285713Y-84241485D02*
X168666666Y-84241485D01*
X164681904Y-84254819D02*
X164681904Y-83254819D01*
X164110476Y-84254819D02*
X164539047Y-83683390D01*
X164110476Y-83254819D02*
X164681904Y-83826247D01*
X169238094Y-104074819D02*
X169238094Y-103074819D01*
X169238094Y-103074819D02*
X168999999Y-103074819D01*
X168999999Y-103074819D02*
X168857142Y-103122438D01*
X168857142Y-103122438D02*
X168761904Y-103217676D01*
X168761904Y-103217676D02*
X168714285Y-103312914D01*
X168714285Y-103312914D02*
X168666666Y-103503390D01*
X168666666Y-103503390D02*
X168666666Y-103646247D01*
X168666666Y-103646247D02*
X168714285Y-103836723D01*
X168714285Y-103836723D02*
X168761904Y-103931961D01*
X168761904Y-103931961D02*
X168857142Y-104027200D01*
X168857142Y-104027200D02*
X168999999Y-104074819D01*
X168999999Y-104074819D02*
X169238094Y-104074819D01*
X167761904Y-103074819D02*
X168238094Y-103074819D01*
X168238094Y-103074819D02*
X168285713Y-103551009D01*
X168285713Y-103551009D02*
X168238094Y-103503390D01*
X168238094Y-103503390D02*
X168142856Y-103455771D01*
X168142856Y-103455771D02*
X167904761Y-103455771D01*
X167904761Y-103455771D02*
X167809523Y-103503390D01*
X167809523Y-103503390D02*
X167761904Y-103551009D01*
X167761904Y-103551009D02*
X167714285Y-103646247D01*
X167714285Y-103646247D02*
X167714285Y-103884342D01*
X167714285Y-103884342D02*
X167761904Y-103979580D01*
X167761904Y-103979580D02*
X167809523Y-104027200D01*
X167809523Y-104027200D02*
X167904761Y-104074819D01*
X167904761Y-104074819D02*
X168142856Y-104074819D01*
X168142856Y-104074819D02*
X168238094Y-104027200D01*
X168238094Y-104027200D02*
X168285713Y-103979580D01*
X163681904Y-103754819D02*
X163681904Y-102754819D01*
X163110476Y-103754819D02*
X163539047Y-103183390D01*
X163110476Y-102754819D02*
X163681904Y-103326247D01*
X188738094Y-104074819D02*
X188738094Y-103074819D01*
X188738094Y-103074819D02*
X188499999Y-103074819D01*
X188499999Y-103074819D02*
X188357142Y-103122438D01*
X188357142Y-103122438D02*
X188261904Y-103217676D01*
X188261904Y-103217676D02*
X188214285Y-103312914D01*
X188214285Y-103312914D02*
X188166666Y-103503390D01*
X188166666Y-103503390D02*
X188166666Y-103646247D01*
X188166666Y-103646247D02*
X188214285Y-103836723D01*
X188214285Y-103836723D02*
X188261904Y-103931961D01*
X188261904Y-103931961D02*
X188357142Y-104027200D01*
X188357142Y-104027200D02*
X188499999Y-104074819D01*
X188499999Y-104074819D02*
X188738094Y-104074819D01*
X187595237Y-103503390D02*
X187690475Y-103455771D01*
X187690475Y-103455771D02*
X187738094Y-103408152D01*
X187738094Y-103408152D02*
X187785713Y-103312914D01*
X187785713Y-103312914D02*
X187785713Y-103265295D01*
X187785713Y-103265295D02*
X187738094Y-103170057D01*
X187738094Y-103170057D02*
X187690475Y-103122438D01*
X187690475Y-103122438D02*
X187595237Y-103074819D01*
X187595237Y-103074819D02*
X187404761Y-103074819D01*
X187404761Y-103074819D02*
X187309523Y-103122438D01*
X187309523Y-103122438D02*
X187261904Y-103170057D01*
X187261904Y-103170057D02*
X187214285Y-103265295D01*
X187214285Y-103265295D02*
X187214285Y-103312914D01*
X187214285Y-103312914D02*
X187261904Y-103408152D01*
X187261904Y-103408152D02*
X187309523Y-103455771D01*
X187309523Y-103455771D02*
X187404761Y-103503390D01*
X187404761Y-103503390D02*
X187595237Y-103503390D01*
X187595237Y-103503390D02*
X187690475Y-103551009D01*
X187690475Y-103551009D02*
X187738094Y-103598628D01*
X187738094Y-103598628D02*
X187785713Y-103693866D01*
X187785713Y-103693866D02*
X187785713Y-103884342D01*
X187785713Y-103884342D02*
X187738094Y-103979580D01*
X187738094Y-103979580D02*
X187690475Y-104027200D01*
X187690475Y-104027200D02*
X187595237Y-104074819D01*
X187595237Y-104074819D02*
X187404761Y-104074819D01*
X187404761Y-104074819D02*
X187309523Y-104027200D01*
X187309523Y-104027200D02*
X187261904Y-103979580D01*
X187261904Y-103979580D02*
X187214285Y-103884342D01*
X187214285Y-103884342D02*
X187214285Y-103693866D01*
X187214285Y-103693866D02*
X187261904Y-103598628D01*
X187261904Y-103598628D02*
X187309523Y-103551009D01*
X187309523Y-103551009D02*
X187404761Y-103503390D01*
X183181904Y-103754819D02*
X183181904Y-102754819D01*
X182610476Y-103754819D02*
X183039047Y-103183390D01*
X182610476Y-102754819D02*
X183181904Y-103326247D01*
X188738094Y-124074819D02*
X188738094Y-123074819D01*
X188738094Y-123074819D02*
X188499999Y-123074819D01*
X188499999Y-123074819D02*
X188357142Y-123122438D01*
X188357142Y-123122438D02*
X188261904Y-123217676D01*
X188261904Y-123217676D02*
X188214285Y-123312914D01*
X188214285Y-123312914D02*
X188166666Y-123503390D01*
X188166666Y-123503390D02*
X188166666Y-123646247D01*
X188166666Y-123646247D02*
X188214285Y-123836723D01*
X188214285Y-123836723D02*
X188261904Y-123931961D01*
X188261904Y-123931961D02*
X188357142Y-124027200D01*
X188357142Y-124027200D02*
X188499999Y-124074819D01*
X188499999Y-124074819D02*
X188738094Y-124074819D01*
X187690475Y-124074819D02*
X187499999Y-124074819D01*
X187499999Y-124074819D02*
X187404761Y-124027200D01*
X187404761Y-124027200D02*
X187357142Y-123979580D01*
X187357142Y-123979580D02*
X187261904Y-123836723D01*
X187261904Y-123836723D02*
X187214285Y-123646247D01*
X187214285Y-123646247D02*
X187214285Y-123265295D01*
X187214285Y-123265295D02*
X187261904Y-123170057D01*
X187261904Y-123170057D02*
X187309523Y-123122438D01*
X187309523Y-123122438D02*
X187404761Y-123074819D01*
X187404761Y-123074819D02*
X187595237Y-123074819D01*
X187595237Y-123074819D02*
X187690475Y-123122438D01*
X187690475Y-123122438D02*
X187738094Y-123170057D01*
X187738094Y-123170057D02*
X187785713Y-123265295D01*
X187785713Y-123265295D02*
X187785713Y-123503390D01*
X187785713Y-123503390D02*
X187738094Y-123598628D01*
X187738094Y-123598628D02*
X187690475Y-123646247D01*
X187690475Y-123646247D02*
X187595237Y-123693866D01*
X187595237Y-123693866D02*
X187404761Y-123693866D01*
X187404761Y-123693866D02*
X187309523Y-123646247D01*
X187309523Y-123646247D02*
X187261904Y-123598628D01*
X187261904Y-123598628D02*
X187214285Y-123503390D01*
X183181904Y-123754819D02*
X183181904Y-122754819D01*
X182610476Y-123754819D02*
X183039047Y-123183390D01*
X182610476Y-122754819D02*
X183181904Y-123326247D01*
X189238094Y-84574819D02*
X189238094Y-83574819D01*
X189238094Y-83574819D02*
X188999999Y-83574819D01*
X188999999Y-83574819D02*
X188857142Y-83622438D01*
X188857142Y-83622438D02*
X188761904Y-83717676D01*
X188761904Y-83717676D02*
X188714285Y-83812914D01*
X188714285Y-83812914D02*
X188666666Y-84003390D01*
X188666666Y-84003390D02*
X188666666Y-84146247D01*
X188666666Y-84146247D02*
X188714285Y-84336723D01*
X188714285Y-84336723D02*
X188761904Y-84431961D01*
X188761904Y-84431961D02*
X188857142Y-84527200D01*
X188857142Y-84527200D02*
X188999999Y-84574819D01*
X188999999Y-84574819D02*
X189238094Y-84574819D01*
X188333332Y-83574819D02*
X187666666Y-83574819D01*
X187666666Y-83574819D02*
X188095237Y-84574819D01*
X183681904Y-84254819D02*
X183681904Y-83254819D01*
X183110476Y-84254819D02*
X183539047Y-83683390D01*
X183110476Y-83254819D02*
X183681904Y-83826247D01*
X149238094Y-124574819D02*
X149238094Y-123574819D01*
X149238094Y-123574819D02*
X148999999Y-123574819D01*
X148999999Y-123574819D02*
X148857142Y-123622438D01*
X148857142Y-123622438D02*
X148761904Y-123717676D01*
X148761904Y-123717676D02*
X148714285Y-123812914D01*
X148714285Y-123812914D02*
X148666666Y-124003390D01*
X148666666Y-124003390D02*
X148666666Y-124146247D01*
X148666666Y-124146247D02*
X148714285Y-124336723D01*
X148714285Y-124336723D02*
X148761904Y-124431961D01*
X148761904Y-124431961D02*
X148857142Y-124527200D01*
X148857142Y-124527200D02*
X148999999Y-124574819D01*
X148999999Y-124574819D02*
X149238094Y-124574819D01*
X148333332Y-123574819D02*
X147714285Y-123574819D01*
X147714285Y-123574819D02*
X148047618Y-123955771D01*
X148047618Y-123955771D02*
X147904761Y-123955771D01*
X147904761Y-123955771D02*
X147809523Y-124003390D01*
X147809523Y-124003390D02*
X147761904Y-124051009D01*
X147761904Y-124051009D02*
X147714285Y-124146247D01*
X147714285Y-124146247D02*
X147714285Y-124384342D01*
X147714285Y-124384342D02*
X147761904Y-124479580D01*
X147761904Y-124479580D02*
X147809523Y-124527200D01*
X147809523Y-124527200D02*
X147904761Y-124574819D01*
X147904761Y-124574819D02*
X148190475Y-124574819D01*
X148190475Y-124574819D02*
X148285713Y-124527200D01*
X148285713Y-124527200D02*
X148333332Y-124479580D01*
X143681904Y-124254819D02*
X143681904Y-123254819D01*
X143110476Y-124254819D02*
X143539047Y-123683390D01*
X143110476Y-123254819D02*
X143681904Y-123826247D01*
X149238094Y-104074819D02*
X149238094Y-103074819D01*
X149238094Y-103074819D02*
X148999999Y-103074819D01*
X148999999Y-103074819D02*
X148857142Y-103122438D01*
X148857142Y-103122438D02*
X148761904Y-103217676D01*
X148761904Y-103217676D02*
X148714285Y-103312914D01*
X148714285Y-103312914D02*
X148666666Y-103503390D01*
X148666666Y-103503390D02*
X148666666Y-103646247D01*
X148666666Y-103646247D02*
X148714285Y-103836723D01*
X148714285Y-103836723D02*
X148761904Y-103931961D01*
X148761904Y-103931961D02*
X148857142Y-104027200D01*
X148857142Y-104027200D02*
X148999999Y-104074819D01*
X148999999Y-104074819D02*
X149238094Y-104074819D01*
X148285713Y-103170057D02*
X148238094Y-103122438D01*
X148238094Y-103122438D02*
X148142856Y-103074819D01*
X148142856Y-103074819D02*
X147904761Y-103074819D01*
X147904761Y-103074819D02*
X147809523Y-103122438D01*
X147809523Y-103122438D02*
X147761904Y-103170057D01*
X147761904Y-103170057D02*
X147714285Y-103265295D01*
X147714285Y-103265295D02*
X147714285Y-103360533D01*
X147714285Y-103360533D02*
X147761904Y-103503390D01*
X147761904Y-103503390D02*
X148333332Y-104074819D01*
X148333332Y-104074819D02*
X147714285Y-104074819D01*
X143681904Y-103754819D02*
X143681904Y-102754819D01*
X143110476Y-103754819D02*
X143539047Y-103183390D01*
X143110476Y-102754819D02*
X143681904Y-103326247D01*
%TO.C,D1*%
D11*
X147880000Y-80880000D02*
X152120000Y-80880000D01*
X152120000Y-83120000D01*
X147880000Y-83120000D01*
X147880000Y-80880000D01*
X154040000Y-82000000D02*
X152120000Y-82000000D01*
X148720000Y-83120000D02*
X148720000Y-80880000D01*
X148600000Y-83120000D02*
X148600000Y-80880000D01*
X148480000Y-83120000D02*
X148480000Y-80880000D01*
X145960000Y-82000000D02*
X147880000Y-82000000D01*
%TO.C,D6*%
X164960000Y-122000000D02*
X166880000Y-122000000D01*
X167480000Y-123120000D02*
X167480000Y-120880000D01*
X167600000Y-123120000D02*
X167600000Y-120880000D01*
X167720000Y-123120000D02*
X167720000Y-120880000D01*
X173040000Y-122000000D02*
X171120000Y-122000000D01*
X166880000Y-120880000D02*
X171120000Y-120880000D01*
X171120000Y-123120000D01*
X166880000Y-123120000D01*
X166880000Y-120880000D01*
%TO.C,D4*%
X165460000Y-82000000D02*
X167380000Y-82000000D01*
X167980000Y-83120000D02*
X167980000Y-80880000D01*
X168100000Y-83120000D02*
X168100000Y-80880000D01*
X168220000Y-83120000D02*
X168220000Y-80880000D01*
X173540000Y-82000000D02*
X171620000Y-82000000D01*
X167380000Y-80880000D02*
X171620000Y-80880000D01*
X171620000Y-83120000D01*
X167380000Y-83120000D01*
X167380000Y-80880000D01*
%TO.C,D5*%
X164460000Y-101500000D02*
X166380000Y-101500000D01*
X166980000Y-102620000D02*
X166980000Y-100380000D01*
X167100000Y-102620000D02*
X167100000Y-100380000D01*
X167220000Y-102620000D02*
X167220000Y-100380000D01*
X172540000Y-101500000D02*
X170620000Y-101500000D01*
X166380000Y-100380000D02*
X170620000Y-100380000D01*
X170620000Y-102620000D01*
X166380000Y-102620000D01*
X166380000Y-100380000D01*
%TO.C,D8*%
X185880000Y-100380000D02*
X190120000Y-100380000D01*
X190120000Y-102620000D01*
X185880000Y-102620000D01*
X185880000Y-100380000D01*
X192040000Y-101500000D02*
X190120000Y-101500000D01*
X186720000Y-102620000D02*
X186720000Y-100380000D01*
X186600000Y-102620000D02*
X186600000Y-100380000D01*
X186480000Y-102620000D02*
X186480000Y-100380000D01*
X183960000Y-101500000D02*
X185880000Y-101500000D01*
%TO.C,D9*%
X185880000Y-120380000D02*
X190120000Y-120380000D01*
X190120000Y-122620000D01*
X185880000Y-122620000D01*
X185880000Y-120380000D01*
X192040000Y-121500000D02*
X190120000Y-121500000D01*
X186720000Y-122620000D02*
X186720000Y-120380000D01*
X186600000Y-122620000D02*
X186600000Y-120380000D01*
X186480000Y-122620000D02*
X186480000Y-120380000D01*
X183960000Y-121500000D02*
X185880000Y-121500000D01*
%TO.C,D7*%
X186380000Y-80880000D02*
X190620000Y-80880000D01*
X190620000Y-83120000D01*
X186380000Y-83120000D01*
X186380000Y-80880000D01*
X192540000Y-82000000D02*
X190620000Y-82000000D01*
X187220000Y-83120000D02*
X187220000Y-80880000D01*
X187100000Y-83120000D02*
X187100000Y-80880000D01*
X186980000Y-83120000D02*
X186980000Y-80880000D01*
X184460000Y-82000000D02*
X186380000Y-82000000D01*
%TO.C,D3*%
X146380000Y-120880000D02*
X150620000Y-120880000D01*
X150620000Y-123120000D01*
X146380000Y-123120000D01*
X146380000Y-120880000D01*
X152540000Y-122000000D02*
X150620000Y-122000000D01*
X147220000Y-123120000D02*
X147220000Y-120880000D01*
X147100000Y-123120000D02*
X147100000Y-120880000D01*
X146980000Y-123120000D02*
X146980000Y-120880000D01*
X144460000Y-122000000D02*
X146380000Y-122000000D01*
%TO.C,D2*%
X146380000Y-100380000D02*
X150620000Y-100380000D01*
X150620000Y-102620000D01*
X146380000Y-102620000D01*
X146380000Y-100380000D01*
X152540000Y-101500000D02*
X150620000Y-101500000D01*
X147220000Y-102620000D02*
X147220000Y-100380000D01*
X147100000Y-102620000D02*
X147100000Y-100380000D01*
X146980000Y-102620000D02*
X146980000Y-100380000D01*
X144460000Y-101500000D02*
X146380000Y-101500000D01*
%TD*%
M02*
