M48
; DRILL file KiCad 10.0.5 date 2026-09-14T23:24:25
; FORMAT={-:-/ absolute / metric / decimal}
; #@! TF.CreationDate,2026-09-14T23:24:25+05:30
; #@! TF.GenerationSoftware,Kicad,Pcbnew,10.0.5
; #@! TF.FileFunction,Plated,1,2,PTH
FMAT,2
METRIC
; #@! TA.AperFunction,Plated,PTH,ViaDrill
T1C0.300
; #@! TA.AperFunction,Plated,PTH,ComponentDrill
T2C0.800
; #@! TA.AperFunction,Plated,PTH,ComponentDrill
T3C1.000
; #@! TA.AperFunction,Plated,PTH,ComponentDrill
T4C1.500
%
G90
G05
T1
X113.0Y-88.0
X133.0Y-101.0
X133.5Y-98.0
X138.5Y-76.0
X145.0Y-103.5
X148.0Y-114.5
X149.0Y-116.5
X159.5Y-109.5
X165.0Y-125.5
X171.0Y-115.0
X172.5Y-116.5
X177.0Y-102.9
T2
X143.42Y-101.5
X143.42Y-122.0
X144.92Y-82.0
X153.58Y-101.5
X153.58Y-122.0
X155.08Y-82.0
X163.42Y-101.5
X163.92Y-122.0
X164.42Y-82.0
X173.58Y-101.5
X174.08Y-122.0
X174.58Y-82.0
X182.92Y-101.5
X182.92Y-121.5
X183.42Y-82.0
X193.08Y-101.5
X193.08Y-121.5
X193.58Y-82.0
T3
X201.75Y-67.6
X201.75Y-70.1
X201.75Y-72.6
X216.25Y-67.6
X216.25Y-72.6
T4
X145.61Y-69.96
X145.65Y-89.54
X145.65Y-109.04
X151.96Y-67.42
X152.0Y-87.0
X152.0Y-106.5
X165.0Y-89.5
X165.0Y-109.0
X165.19Y-69.96
X171.35Y-86.96
X171.35Y-106.46
X171.54Y-67.42
X184.5Y-89.46
X184.5Y-109.0
X184.61Y-69.96
X190.85Y-86.92
X190.85Y-106.46
X190.96Y-67.42
T4
G00X208.6Y-64.5
M15
G01X209.9Y-64.5
M16
G05
G00X208.6Y-75.7
M15
G01X209.9Y-75.7
M16
G05
M30
