%TF.GenerationSoftware,KiCad,Pcbnew,10.0.5*%
%TF.CreationDate,2026-09-14T23:24:27+05:30*%
%TF.ProjectId,hackpad-san,6861636b-7061-4642-9d73-616e2e6b6963,rev?*%
%TF.SameCoordinates,Original*%
%TF.FileFunction,Soldermask,Bot*%
%TF.FilePolarity,Negative*%
%FSLAX46Y46*%
G04 Gerber Fmt 4.6, Leading zero omitted, Abs format (unit mm)*
G04 Created by KiCad (PCBNEW 10.0.5) date 2026-09-14 23:24:27*
%MOMM*%
%LPD*%
G01*
G04 APERTURE LIST*
G04 Aperture macros list*
%AMRoundRect*
0 Rectangle with rounded corners*
0 $1 Rounding radius*
0 $2 $3 $4 $5 $6 $7 $8 $9 X,Y pos of 4 corners*
0 Add a 4 corners polygon primitive as box body*
4,1,4,$2,$3,$4,$5,$6,$7,$8,$9,$2,$3,0*
0 Add four circle primitives for the rounded corners*
1,1,$1+$1,$2,$3*
1,1,$1+$1,$4,$5*
1,1,$1+$1,$6,$7*
1,1,$1+$1,$8,$9*
0 Add four rect primitives between the rounded corners*
20,1,$1+$1,$2,$3,$4,$5,0*
20,1,$1+$1,$4,$5,$6,$7,0*
20,1,$1+$1,$6,$7,$8,$9,0*
20,1,$1+$1,$8,$9,$2,$3,0*%
G04 Aperture macros list end*
%ADD10C,3.200000*%
%ADD11C,1.600000*%
%ADD12RoundRect,0.250000X-0.550000X-0.550000X0.550000X-0.550000X0.550000X0.550000X-0.550000X0.550000X0*%
%ADD13C,2.000000*%
%ADD14R,3.200000X2.000000*%
%ADD15R,2.000000X2.000000*%
%ADD16C,2.200000*%
%ADD17C,1.700000*%
%ADD18C,4.000000*%
G04 APERTURE END LIST*
D10*
%TO.C,H4*%
X111500000Y-63000000D03*
%TD*%
%TO.C,H3*%
X205500000Y-114500000D03*
%TD*%
%TO.C,H2*%
X215475000Y-85000000D03*
%TD*%
%TO.C,H1*%
X133500000Y-124000000D03*
%TD*%
D11*
%TO.C,D1*%
X155080000Y-82000000D03*
D12*
X144920000Y-82000000D03*
%TD*%
%TO.C,D6*%
X163920000Y-122000000D03*
D11*
X174080000Y-122000000D03*
%TD*%
D12*
%TO.C,D4*%
X164420000Y-82000000D03*
D11*
X174580000Y-82000000D03*
%TD*%
D12*
%TO.C,D5*%
X163420000Y-101500000D03*
D11*
X173580000Y-101500000D03*
%TD*%
D13*
%TO.C,SW11*%
X216250000Y-67600000D03*
X216250000Y-72600000D03*
D14*
X209250000Y-75700000D03*
X209250000Y-64500000D03*
D13*
X201750000Y-70100000D03*
X201750000Y-72600000D03*
D15*
X201750000Y-67600000D03*
%TD*%
D11*
%TO.C,D8*%
X193080000Y-101500000D03*
D12*
X182920000Y-101500000D03*
%TD*%
D11*
%TO.C,D9*%
X193080000Y-121500000D03*
D12*
X182920000Y-121500000D03*
%TD*%
D11*
%TO.C,D7*%
X193580000Y-82000000D03*
D12*
X183420000Y-82000000D03*
%TD*%
D11*
%TO.C,D3*%
X153580000Y-122000000D03*
D12*
X143420000Y-122000000D03*
%TD*%
D11*
%TO.C,D2*%
X153580000Y-101500000D03*
D12*
X143420000Y-101500000D03*
%TD*%
D16*
%TO.C,SW6*%
X165000000Y-109000000D03*
X171350000Y-106460000D03*
D17*
X173890000Y-111540000D03*
D18*
X168810000Y-111540000D03*
D17*
X163730000Y-111540000D03*
%TD*%
D16*
%TO.C,SW9*%
X184500000Y-109000000D03*
X190850000Y-106460000D03*
D17*
X193390000Y-111540000D03*
D18*
X188310000Y-111540000D03*
D17*
X183230000Y-111540000D03*
%TD*%
D16*
%TO.C,SW8*%
X184500000Y-89460000D03*
X190850000Y-86920000D03*
D17*
X193390000Y-92000000D03*
D18*
X188310000Y-92000000D03*
D17*
X183230000Y-92000000D03*
%TD*%
D16*
%TO.C,SW5*%
X165000000Y-89500000D03*
X171350000Y-86960000D03*
D17*
X173890000Y-92040000D03*
D18*
X168810000Y-92040000D03*
D17*
X163730000Y-92040000D03*
%TD*%
D16*
%TO.C,SW2*%
X145650000Y-89540000D03*
X152000000Y-87000000D03*
D17*
X154540000Y-92080000D03*
D18*
X149460000Y-92080000D03*
D17*
X144380000Y-92080000D03*
%TD*%
D16*
%TO.C,SW1*%
X145610000Y-69960000D03*
X151960000Y-67420000D03*
D17*
X154500000Y-72500000D03*
D18*
X149420000Y-72500000D03*
D17*
X144340000Y-72500000D03*
%TD*%
D16*
%TO.C,SW4*%
X165190000Y-69960000D03*
X171540000Y-67420000D03*
D17*
X174080000Y-72500000D03*
D18*
X169000000Y-72500000D03*
D17*
X163920000Y-72500000D03*
%TD*%
D16*
%TO.C,SW7*%
X184610000Y-69960000D03*
X190960000Y-67420000D03*
D17*
X193500000Y-72500000D03*
D18*
X188420000Y-72500000D03*
D17*
X183340000Y-72500000D03*
%TD*%
D16*
%TO.C,SW3*%
X145650000Y-109040000D03*
X152000000Y-106500000D03*
D17*
X154540000Y-111580000D03*
D18*
X149460000Y-111580000D03*
D17*
X144380000Y-111580000D03*
%TD*%
M02*
