%TF.GenerationSoftware,KiCad,Pcbnew,10.0.5*%
%TF.CreationDate,2026-09-14T23:24:27+05:30*%
%TF.ProjectId,hackpad-san,6861636b-7061-4642-9d73-616e2e6b6963,rev?*%
%TF.SameCoordinates,Original*%
%TF.FileFunction,Copper,L1,Top*%
%TF.FilePolarity,Positive*%
%FSLAX46Y46*%
G04 Gerber Fmt 4.6, Leading zero omitted, Abs format (unit mm)*
G04 Created by KiCad (PCBNEW 10.0.5) date 2026-09-14 23:24:27*
%MOMM*%
%LPD*%
G01*
G04 APERTURE LIST*
G04 Aperture macros list*
%AMRoundRect*
0 Rectangle with rounded corners*
0 $1 Rounding radius*
0 $2 $3 $4 $5 $6 $7 $8 $9 X,Y pos of 4 corners*
0 Add a 4 corners polygon primitive as box body*
4,1,4,$2,$3,$4,$5,$6,$7,$8,$9,$2,$3,0*
0 Add four circle primitives for the rounded corners*
1,1,$1+$1,$2,$3*
1,1,$1+$1,$4,$5*
1,1,$1+$1,$6,$7*
1,1,$1+$1,$8,$9*
0 Add four rect primitives between the rounded corners*
20,1,$1+$1,$2,$3,$4,$5,0*
20,1,$1+$1,$4,$5,$6,$7,0*
20,1,$1+$1,$6,$7,$8,$9,0*
20,1,$1+$1,$8,$9,$2,$3,0*%
G04 Aperture macros list end*
%TA.AperFunction,ComponentPad*%
%ADD10C,1.600000*%
%TD*%
%TA.AperFunction,ComponentPad*%
%ADD11RoundRect,0.250000X-0.550000X-0.550000X0.550000X-0.550000X0.550000X0.550000X-0.550000X0.550000X0*%
%TD*%
%TA.AperFunction,ComponentPad*%
%ADD12C,2.000000*%
%TD*%
%TA.AperFunction,ComponentPad*%
%ADD13R,3.200000X2.000000*%
%TD*%
%TA.AperFunction,ComponentPad*%
%ADD14R,2.000000X2.000000*%
%TD*%
%TA.AperFunction,SMDPad,CuDef*%
%ADD15RoundRect,0.275000X-0.275000X0.975000X-0.275000X-0.975000X0.275000X-0.975000X0.275000X0.975000X0*%
%TD*%
%TA.AperFunction,SMDPad,CuDef*%
%ADD16C,1.700000*%
%TD*%
%TA.AperFunction,SMDPad,CuDef*%
%ADD17RoundRect,0.500000X-0.875000X-0.500000X0.875000X-0.500000X0.875000X0.500000X-0.875000X0.500000X0*%
%TD*%
%TA.AperFunction,ComponentPad*%
%ADD18C,2.200000*%
%TD*%
%TA.AperFunction,ViaPad*%
%ADD19C,0.600000*%
%TD*%
%TA.AperFunction,Conductor*%
%ADD20C,0.200000*%
%TD*%
G04 APERTURE END LIST*
D10*
%TO.P,D1,2,A_2*%
%TO.N,Net-(D1-A)*%
X155080000Y-82000000D03*
D11*
%TO.P,D1,1,K_1*%
%TO.N,/col1*%
X144920000Y-82000000D03*
%TD*%
%TO.P,D6,1,K_1*%
%TO.N,/col2*%
X163920000Y-122000000D03*
D10*
%TO.P,D6,2,A_2*%
%TO.N,Net-(D6-A)*%
X174080000Y-122000000D03*
%TD*%
D11*
%TO.P,D4,1,K_1*%
%TO.N,/col2*%
X164420000Y-82000000D03*
D10*
%TO.P,D4,2,A_2*%
%TO.N,Net-(D4-A)*%
X174580000Y-82000000D03*
%TD*%
D11*
%TO.P,D5,1,K_1*%
%TO.N,/col2*%
X163420000Y-101500000D03*
D10*
%TO.P,D5,2,A_2*%
%TO.N,Net-(D5-A)*%
X173580000Y-101500000D03*
%TD*%
D12*
%TO.P,SW11,S2,S2_S2*%
%TO.N,GND*%
X216250000Y-67600000D03*
%TO.P,SW11,S1,S1_S1*%
%TO.N,/RE_S1*%
X216250000Y-72600000D03*
D13*
%TO.P,SW11,MP*%
%TO.N,N/C*%
X209250000Y-75700000D03*
X209250000Y-64500000D03*
D12*
%TO.P,SW11,C,C_C*%
%TO.N,GND*%
X201750000Y-70100000D03*
%TO.P,SW11,B,B_B*%
%TO.N,/RE_B*%
X201750000Y-72600000D03*
D14*
%TO.P,SW11,A,A_A*%
%TO.N,/RE_A*%
X201750000Y-67600000D03*
%TD*%
D10*
%TO.P,D8,2,A_2*%
%TO.N,Net-(D8-A)*%
X193080000Y-101500000D03*
D11*
%TO.P,D8,1,K_1*%
%TO.N,/col3*%
X182920000Y-101500000D03*
%TD*%
D10*
%TO.P,D9,2,A_2*%
%TO.N,Net-(D9-A)*%
X193080000Y-121500000D03*
D11*
%TO.P,D9,1,K_1*%
%TO.N,/col3*%
X182920000Y-121500000D03*
%TD*%
D10*
%TO.P,D7,2,A_2*%
%TO.N,Net-(D7-A)*%
X193580000Y-82000000D03*
D11*
%TO.P,D7,1,K_1*%
%TO.N,/col3*%
X183420000Y-82000000D03*
%TD*%
D10*
%TO.P,D3,2,A_2*%
%TO.N,Net-(D3-A)*%
X153580000Y-122000000D03*
D11*
%TO.P,D3,1,K_1*%
%TO.N,/col1*%
X143420000Y-122000000D03*
%TD*%
D10*
%TO.P,D2,2,A_2*%
%TO.N,Net-(D2-A)*%
X153580000Y-101500000D03*
D11*
%TO.P,D2,1,K_1*%
%TO.N,/col1*%
X143420000Y-101500000D03*
%TD*%
D15*
%TO.P,U1,20,GND_20*%
%TO.N,unconnected-(U1-GND-Pad20)*%
X127956500Y-81770250D03*
%TO.P,U1,19,VIN_19*%
%TO.N,unconnected-(U1-VIN-Pad19)*%
X125416500Y-81770250D03*
D16*
%TO.P,U1,18,GND_18*%
%TO.N,GND*%
X127956500Y-67292250D03*
%TO.P,U1,17,EN_17*%
%TO.N,unconnected-(U1-EN-Pad17)*%
X125416500Y-67292250D03*
%TO.P,U1,16,SWCLK_16*%
%TO.N,unconnected-(U1-SWCLK-Pad16)*%
X127956500Y-64752250D03*
%TO.P,U1,15,SWDIO_15*%
%TO.N,unconnected-(U1-SWDIO-Pad15)*%
X125416500Y-64752250D03*
D17*
%TO.P,U1,14,VBUS_14*%
%TO.N,unconnected-(U1-VBUS-Pad14)*%
X134669500Y-65510250D03*
%TO.P,U1,13,GND_13*%
%TO.N,unconnected-(U1-GND-Pad13)*%
X134669500Y-68050250D03*
%TO.P,U1,12,3V3_OUT_12*%
%TO.N,unconnected-(U1-3V3_OUT-Pad12)*%
X134669500Y-70590250D03*
%TO.P,U1,11,D10_11*%
%TO.N,unconnected-(U1-D10-Pad11)*%
X134669500Y-73130250D03*
%TO.P,U1,10,D9_10*%
%TO.N,unconnected-(U1-D9-Pad10)*%
X134669500Y-75670250D03*
%TO.P,U1,9,D8_9*%
%TO.N,unconnected-(U1-D8-Pad9)*%
X134669500Y-78210250D03*
%TO.P,U1,8,D7_8*%
%TO.N,unconnected-(U1-D7-Pad8)*%
X134669500Y-80750250D03*
%TO.P,U1,7,D6_7*%
%TO.N,unconnected-(U1-D6-Pad7)*%
X118504500Y-80750250D03*
%TO.P,U1,6,D5_6*%
%TO.N,/col3*%
X118504500Y-78210250D03*
%TO.P,U1,5,D4_5*%
%TO.N,/col2*%
X118504500Y-75670250D03*
%TO.P,U1,4,D3_4*%
%TO.N,/col1*%
X118504500Y-73130250D03*
%TO.P,U1,3,D2_3*%
%TO.N,/row3*%
X118504500Y-70590250D03*
%TO.P,U1,2,D1_2*%
%TO.N,/row2*%
X118504500Y-68050250D03*
%TO.P,U1,1,D0_1*%
%TO.N,/row1*%
X118504500Y-65510250D03*
%TD*%
D18*
%TO.P,SW6,2,2_2*%
%TO.N,Net-(D6-A)*%
X165000000Y-109000000D03*
%TO.P,SW6,1,1_1*%
%TO.N,/row3*%
X171350000Y-106460000D03*
%TD*%
%TO.P,SW9,2,2_2*%
%TO.N,Net-(D9-A)*%
X184500000Y-109000000D03*
%TO.P,SW9,1,1_1*%
%TO.N,/row3*%
X190850000Y-106460000D03*
%TD*%
%TO.P,SW8,2,2_2*%
%TO.N,Net-(D8-A)*%
X184500000Y-89460000D03*
%TO.P,SW8,1,1_1*%
%TO.N,/row2*%
X190850000Y-86920000D03*
%TD*%
%TO.P,SW5,2,2_2*%
%TO.N,Net-(D5-A)*%
X165000000Y-89500000D03*
%TO.P,SW5,1,1_1*%
%TO.N,/row2*%
X171350000Y-86960000D03*
%TD*%
%TO.P,SW2,2,2_2*%
%TO.N,Net-(D2-A)*%
X145650000Y-89540000D03*
%TO.P,SW2,1,1_1*%
%TO.N,/row2*%
X152000000Y-87000000D03*
%TD*%
%TO.P,SW1,2,2_2*%
%TO.N,Net-(D1-A)*%
X145610000Y-69960000D03*
%TO.P,SW1,1,1_1*%
%TO.N,/row1*%
X151960000Y-67420000D03*
%TD*%
%TO.P,SW4,2,2_2*%
%TO.N,Net-(D4-A)*%
X165190000Y-69960000D03*
%TO.P,SW4,1,1_1*%
%TO.N,/row1*%
X171540000Y-67420000D03*
%TD*%
%TO.P,SW7,2,2_2*%
%TO.N,Net-(D7-A)*%
X184610000Y-69960000D03*
%TO.P,SW7,1,1_1*%
%TO.N,/row1*%
X190960000Y-67420000D03*
%TD*%
%TO.P,SW3,2,2_2*%
%TO.N,Net-(D3-A)*%
X145650000Y-109040000D03*
%TO.P,SW3,1,1_1*%
%TO.N,/row3*%
X152000000Y-106500000D03*
%TD*%
D19*
%TO.N,/col1*%
X133000000Y-101000000D03*
X133500000Y-98000000D03*
%TO.N,/row3*%
X145000000Y-103500000D03*
X159500000Y-109500000D03*
%TO.N,/col1*%
X113000000Y-88000000D03*
X138500000Y-76000000D03*
%TO.N,/col2*%
X165000000Y-125500000D03*
X177000000Y-102900000D03*
%TO.N,Net-(D3-A)*%
X148000000Y-114500000D03*
X149000000Y-116500000D03*
%TO.N,Net-(D6-A)*%
X171000000Y-115000000D03*
X172500000Y-116500000D03*
%TD*%
%TO.N,/col1*%
D20*
X143420000Y-122000000D02*
X133000000Y-111580000D01*
X133500000Y-98000000D02*
X134361782Y-98000000D01*
X133000000Y-111580000D02*
X133000000Y-101000000D01*
X134861782Y-86138218D02*
X134861782Y-98500000D01*
X134361782Y-98000000D02*
X134861782Y-98500000D01*
%TO.N,/row3*%
X171350000Y-106460000D02*
X162540000Y-106460000D01*
X145500000Y-103500000D02*
X146000000Y-104000000D01*
X162540000Y-106460000D02*
X159500000Y-109500000D01*
X139500000Y-104000000D02*
X146000000Y-104000000D01*
X145000000Y-103500000D02*
X145500000Y-103500000D01*
X190850000Y-106460000D02*
X189750001Y-105360001D01*
X189750001Y-105360001D02*
X182459999Y-105360001D01*
X182459999Y-105360001D02*
X181360000Y-106460000D01*
X181360000Y-106460000D02*
X181360000Y-118055256D01*
X181360000Y-118055256D02*
X184020000Y-120715256D01*
X184020000Y-120715256D02*
X184020000Y-122284744D01*
X184020000Y-122284744D02*
X183704744Y-122600000D01*
X183704744Y-122600000D02*
X182135256Y-122600000D01*
X182135256Y-122600000D02*
X171350000Y-111814744D01*
X171350000Y-111814744D02*
X171350000Y-106460000D01*
%TO.N,/col1*%
X144500000Y-82000000D02*
X138500000Y-76000000D01*
X144920000Y-82000000D02*
X144500000Y-82000000D01*
X113000000Y-88000000D02*
X113000000Y-78634750D01*
X113000000Y-78634750D02*
X118504500Y-73130250D01*
%TO.N,GND*%
X201750000Y-70100000D02*
X191660101Y-70100000D01*
X191660101Y-70100000D02*
X189560000Y-67999899D01*
X189560000Y-67999899D02*
X172940000Y-67999899D01*
X172940000Y-67999899D02*
X172119899Y-68820000D01*
X170140000Y-67999899D02*
X153360000Y-67999899D01*
X127956500Y-76550892D02*
X127956500Y-67292250D01*
X172119899Y-68820000D02*
X170960101Y-68820000D01*
X170960101Y-68820000D02*
X170140000Y-67999899D01*
X153360000Y-67999899D02*
X152539899Y-68820000D01*
X152539899Y-68820000D02*
X151380101Y-68820000D01*
X136344500Y-81588892D02*
X135883142Y-82050250D01*
X151380101Y-68820000D02*
X148474314Y-65914213D01*
X147060101Y-65914213D02*
X136344500Y-76629814D01*
X148474314Y-65914213D02*
X147060101Y-65914213D01*
X136344500Y-76629814D02*
X136344500Y-81588892D01*
X135883142Y-82050250D02*
X133455858Y-82050250D01*
X133455858Y-82050250D02*
X127956500Y-76550892D01*
X201750000Y-70100000D02*
X204250000Y-67600000D01*
X204250000Y-67600000D02*
X216250000Y-67600000D01*
%TO.N,/col3*%
X180920000Y-103500000D02*
X180960000Y-103460000D01*
X182920000Y-121500000D02*
X180960000Y-119540000D01*
X180960000Y-119540000D02*
X180960000Y-103460000D01*
X182920000Y-101500000D02*
X182030000Y-100610000D01*
X182030000Y-100610000D02*
X182030000Y-83390000D01*
X182030000Y-83390000D02*
X183420000Y-82000000D01*
%TO.N,/col2*%
X174035635Y-102600000D02*
X174335635Y-102900000D01*
X174335635Y-102900000D02*
X177000000Y-102900000D01*
X165000000Y-125500000D02*
X163920000Y-124420000D01*
X163920000Y-124420000D02*
X163920000Y-122000000D01*
%TO.N,/col1*%
X134861782Y-99927467D02*
X142014214Y-107079899D01*
%TO.N,/col3*%
X183420000Y-85080000D02*
X183420000Y-82000000D01*
%TO.N,Net-(D3-A)*%
X153580000Y-122000000D02*
X149000000Y-117420000D01*
X149000000Y-117420000D02*
X149000000Y-116500000D01*
X145650000Y-112150000D02*
X145650000Y-109040000D01*
X148000000Y-114500000D02*
X145650000Y-112150000D01*
%TO.N,/col3*%
X116829500Y-79885250D02*
X116829500Y-83026555D01*
X163000000Y-103500000D02*
X180920000Y-103500000D01*
X116829500Y-83026555D02*
X139500000Y-105697055D01*
X180960000Y-103460000D02*
X182920000Y-101500000D01*
X139500000Y-112500000D02*
X142500000Y-115500000D01*
X118504500Y-78210250D02*
X116829500Y-79885250D01*
X139500000Y-105697055D02*
X139500000Y-112500000D01*
X142500000Y-115500000D02*
X148922944Y-115500000D01*
X158500000Y-108000000D02*
X163000000Y-103500000D01*
X148922944Y-115500000D02*
X156422944Y-108000000D01*
X156422944Y-108000000D02*
X158500000Y-108000000D01*
%TO.N,Net-(D6-A)*%
X171000000Y-115000000D02*
X168946598Y-115000000D01*
X174080000Y-122000000D02*
X174080000Y-118080000D01*
X174080000Y-118080000D02*
X172500000Y-116500000D01*
X165000000Y-111053402D02*
X165000000Y-109000000D01*
X168946598Y-115000000D02*
X165000000Y-111053402D01*
%TO.N,Net-(D9-A)*%
X193080000Y-121500000D02*
X184500000Y-112920000D01*
X184500000Y-112920000D02*
X184500000Y-109000000D01*
%TO.N,/col2*%
X174035635Y-102600000D02*
X164520000Y-102600000D01*
X164520000Y-102600000D02*
X163420000Y-101500000D01*
X153022793Y-108022793D02*
X162530000Y-98515585D01*
X153022793Y-108022793D02*
X159545586Y-101500000D01*
X159545586Y-101500000D02*
X163420000Y-101500000D01*
%TO.N,Net-(D8-A)*%
X184500000Y-89460000D02*
X184500000Y-92920000D01*
X184500000Y-92920000D02*
X193080000Y-101500000D01*
%TO.N,Net-(D5-A)*%
X165000000Y-89500000D02*
X165000000Y-91553402D01*
X173580000Y-100133402D02*
X173580000Y-101500000D01*
X165000000Y-91553402D02*
X173580000Y-100133402D01*
%TO.N,Net-(D2-A)*%
X145650000Y-89540000D02*
X145650000Y-91593402D01*
X153580000Y-99523402D02*
X153580000Y-101500000D01*
X145650000Y-91593402D02*
X153580000Y-99523402D01*
%TO.N,/row2*%
X171350000Y-86960000D02*
X177410000Y-80900000D01*
X177410000Y-80900000D02*
X184830000Y-80900000D01*
X184830000Y-80900000D02*
X190850000Y-86920000D01*
X152000000Y-87000000D02*
X158100000Y-80900000D01*
X158100000Y-80900000D02*
X165290000Y-80900000D01*
X165290000Y-80900000D02*
X171350000Y-86960000D01*
%TO.N,/col1*%
X118504500Y-73130250D02*
X121853814Y-73130250D01*
X121853814Y-73130250D02*
X134861782Y-86138218D01*
X134861782Y-98500000D02*
X134861782Y-99927467D01*
X142014214Y-107079899D02*
X150600000Y-107079899D01*
X150600000Y-107079899D02*
X151420101Y-107900000D01*
X151420101Y-107900000D02*
X152579899Y-107900000D01*
X152579899Y-107900000D02*
X153400000Y-107079899D01*
%TO.N,/col2*%
X118504500Y-75670250D02*
X120500000Y-77665750D01*
X120500000Y-77665750D02*
X120500000Y-86131370D01*
X120500000Y-86131370D02*
X142008630Y-107640000D01*
X142008630Y-107640000D02*
X150594415Y-107640000D01*
X150594415Y-107640000D02*
X151254416Y-108300000D01*
X151254416Y-108300000D02*
X152745585Y-108300000D01*
X152745585Y-108300000D02*
X153022793Y-108022793D01*
X162530000Y-98515585D02*
X162530000Y-83890000D01*
X162530000Y-83890000D02*
X164420000Y-82000000D01*
%TO.N,/col1*%
X153400000Y-105920101D02*
X148979899Y-101500000D01*
X153400000Y-107079899D02*
X153400000Y-105920101D01*
X148979899Y-101500000D02*
X143420000Y-101500000D01*
%TO.N,/row3*%
X139500000Y-90210750D02*
X139500000Y-104000000D01*
X149500000Y-104000000D02*
X152000000Y-106500000D01*
X119879500Y-70590250D02*
X139500000Y-90210750D01*
X118504500Y-70590250D02*
X119879500Y-70590250D01*
X146000000Y-104000000D02*
X149500000Y-104000000D01*
%TO.N,/row2*%
X152000000Y-87000000D02*
X137454250Y-87000000D01*
X137454250Y-87000000D02*
X118504500Y-68050250D01*
%TO.N,Net-(D1-A)*%
X145610000Y-69960000D02*
X145610000Y-72530000D01*
X145610000Y-72530000D02*
X155080000Y-82000000D01*
%TO.N,Net-(D4-A)*%
X165190000Y-69960000D02*
X165190000Y-72610000D01*
X165190000Y-72610000D02*
X174580000Y-82000000D01*
%TO.N,Net-(D7-A)*%
X184610000Y-69960000D02*
X184610000Y-73030000D01*
X184610000Y-73030000D02*
X193580000Y-82000000D01*
%TO.N,/row1*%
X171540000Y-67420000D02*
X190960000Y-67420000D01*
X151960000Y-67420000D02*
X171540000Y-67420000D01*
X118504500Y-65510250D02*
X120514750Y-63500000D01*
X120514750Y-63500000D02*
X148040000Y-63500000D01*
X148040000Y-63500000D02*
X151960000Y-67420000D01*
%TD*%
M02*
