M48
; DRILL file KiCad 10.0.5 date 2026-09-14T23:24:25
; FORMAT={-:-/ absolute / metric / decimal}
; #@! TF.CreationDate,2026-09-14T23:24:25+05:30
; #@! TF.GenerationSoftware,Kicad,Pcbnew,10.0.5
; #@! TF.FileFunction,NonPlated,1,2,NPTH
FMAT,2
METRIC
; #@! TA.AperFunction,NonPlated,NPTH,ComponentDrill
T1C1.700
; #@! TA.AperFunction,NonPlated,NPTH,ComponentDrill
T2C3.200
; #@! TA.AperFunction,NonPlated,NPTH,ComponentDrill
T3C4.000
%
G90
G05
T1
X144.34Y-72.5
X144.38Y-92.08
X144.38Y-111.58
X154.5Y-72.5
X154.54Y-92.08
X154.54Y-111.58
X163.73Y-92.04
X163.73Y-111.54
X163.92Y-72.5
X173.89Y-92.04
X173.89Y-111.54
X174.08Y-72.5
X183.23Y-92.0
X183.23Y-111.54
X183.34Y-72.5
X193.39Y-92.0
X193.39Y-111.54
X193.5Y-72.5
T2
X111.5Y-63.0
X133.5Y-124.0
X205.5Y-114.5
X215.475Y-85.0
T3
X149.42Y-72.5
X149.46Y-92.08
X149.46Y-111.58
X168.81Y-92.04
X168.81Y-111.54
X169.0Y-72.5
X188.31Y-92.0
X188.31Y-111.54
X188.42Y-72.5
M30
